<svg width="299" height="191" viewBox="0 0 299 191" fill="none" xmlns="http://www.w3.org/2000/svg">
<path fill-rule="evenodd" clip-rule="evenodd" d="M111.338 163.14H94.8276C94.8276 160.847 94.8788 158.566 94.9299 156.294C95.0445 151.196 95.1579 146.149 94.6875 141.14C93.9175 132.82 96.0875 126.33 102.818 121.14C104.505 119.658 105.54 117.57 105.698 115.33C106.038 103.8 109.958 93.58 115.868 83.87C120.118 76.8793 124.193 69.7711 128.266 62.6667L128.266 62.6661L128.266 62.6656L128.267 62.665C129.233 60.9792 130.199 59.2937 131.168 57.61C131.71 56.4155 132.142 55.1736 132.458 53.9C103.588 56.64 55.7076 86.3 53.3876 147.1C52.8418 147.382 52.2543 147.574 51.6476 147.67C47.4175 147.67 43.1875 147.679 38.9574 147.688C28.1875 147.71 17.4175 147.732 6.64757 147.61C-0.552446 147.53 -0.672441 147.15 0.647566 140.07C2.90751 127.617 5.17088 115.167 7.43754 102.72C7.61882 101.723 7.8488 100.73 8.12401 99.5427L8.20824 99.1791C8.25676 98.9692 8.30662 98.7532 8.35777 98.5298C8.40654 98.3168 8.45647 98.0971 8.50755 97.87C11.0066 98.3139 13.4773 98.7379 15.9268 99.1581C21.9754 100.196 27.8941 101.211 33.7876 102.45C37.6775 103.26 39.4375 102.65 41.1376 98.54C43.4133 93.0271 46.6382 87.9033 49.8515 82.7978L49.8556 82.7914L49.8596 82.785C50.2865 82.1066 50.7133 81.4286 51.1376 80.75L51.3122 80.4739L51.4851 80.2007C55.1437 74.4229 55.1691 74.3829 50.3376 68.62C46.3775 63.9133 42.4642 59.16 38.5976 54.36C37.5868 52.9329 36.6619 51.4469 35.8276 49.91C39.3367 47.0137 42.8223 44.1428 46.2905 41.2863L46.3128 41.2678L46.3169 41.2645L46.379 41.2134L46.3929 41.2021C54.4333 34.5793 62.3801 28.0338 70.3075 21.43C72.6375 19.49 74.2175 20.01 76.0475 22.3C80.8275 28.3 85.7175 34.19 90.8876 39.83C91.6234 40.4351 92.4892 40.8618 93.4173 41.0769C94.3453 41.292 95.3105 41.2896 96.2375 41.0699C104.608 38.3199 112.898 35.29 121.048 31.97C122.458 31.39 123.898 28.97 123.948 27.31C124.163 20.7754 124.136 14.2298 124.107 7.51285V7.50864L124.107 7.48355C124.097 5.17474 124.088 2.84576 124.088 0.48999C124.716 0.435059 125.296 0.370697 125.844 0.309845C126.893 0.193481 127.825 0.0899963 128.758 0.0899963C132.027 0.0899963 135.297 0.094696 138.568 0.0993958H138.569H138.571C148.796 0.114105 159.025 0.128815 169.238 0C172.678 0 173.978 0.919983 173.878 4.48999C173.758 8.38495 173.779 12.2853 173.8 16.1855C173.819 19.7853 173.839 23.3849 173.748 26.98C173.658 30.27 174.938 31.37 178.058 32.33C185.998 34.76 193.798 37.68 201.488 40.83C204.618 42.11 206.278 41.98 208.488 39.09C211.848 34.6472 215.443 30.4048 219.159 26.0207L219.165 26.0138L219.188 25.9867L219.19 25.9839C221.093 23.7387 223.027 21.4561 224.978 19.09L262.978 50.7C258.978 55.56 254.868 60.54 250.718 65.4399C243.37 74.0874 243.385 74.1113 249.301 83.425L249.578 83.86C252.726 88.7579 255.462 93.9089 257.758 99.26C259.278 102.89 261.208 103.44 264.638 102.68C268.793 101.753 272.975 100.94 277.151 100.127L277.152 100.127L277.153 100.127L277.154 100.127C280.323 99.5102 283.489 98.8943 286.638 98.23C289.538 97.62 290.807 98.42 291.297 101.51C293.458 114.99 295.718 128.46 298.218 141.89C299.028 146.25 297.428 147.6 293.408 147.59C278.408 147.59 263.408 147.59 248.408 147.74C244.909 147.782 244.917 145.753 244.925 143.718C244.926 143.344 244.928 142.971 244.908 142.61C243.926 120.421 235.119 99.2953 220.048 82.98C205.798 67.33 188.008 57.57 166.898 53.33V66.75C173.678 61.43 177.898 64.83 181.198 69.75C193.668 88.34 198.688 108.42 192.448 130.48C191.873 132.53 190.954 134.445 190.033 136.362L190.033 136.363L190.033 136.363C189.606 137.25 189.18 138.138 188.788 139.04L186.788 138.75C186.85 137.874 186.865 136.982 186.879 136.091C186.911 134.144 186.943 132.197 187.478 130.4C193.828 109.14 189.068 90.0099 176.888 72.16C176.06 70.6761 175.371 69.1196 174.828 67.51L172.448 69.1899C172.42 69.3218 172.391 69.4535 172.361 69.5851C172.312 69.8036 172.261 70.022 172.211 70.2402C172.018 71.0672 171.826 71.8937 171.728 72.73C171.627 73.5874 171.581 74.4579 171.534 75.3272C171.447 76.9722 171.359 78.6125 170.908 80.15C170.599 81.186 169.735 82.0573 168.867 82.9317C168.47 83.3318 168.073 83.7325 167.728 84.15C167.361 83.7617 166.935 83.3893 166.509 83.0168L166.508 83.0162C165.552 82.1805 164.595 81.3435 164.298 80.3199C163.405 76.6066 162.783 72.8334 162.438 69.03C162.18 66.8094 162.003 64.5719 161.826 62.3349L161.826 62.3318V62.3312C161.53 58.5858 161.234 54.8418 160.558 51.18C158.84 42.1163 154.509 33.7531 148.098 27.12C146.528 25.6453 144.886 24.2502 143.178 22.94C142.802 24.5873 142.534 26.2576 142.378 27.94C142.278 46.04 135.968 62.08 126.378 77.1C125.874 77.8848 125.367 78.6697 124.859 79.4556C121.215 85.0974 117.54 90.7872 114.828 96.87C109.108 109.67 109.188 122.66 115.878 135.36C116.187 136.028 116.347 136.754 116.347 137.49C116.347 138.226 116.187 138.952 115.878 139.62C115.597 140.088 114.565 140.109 113.32 140.134C112.703 140.147 112.034 140.16 111.378 140.23L111.338 163.14ZM161.477 159.083C159.141 159.78 156.639 159.681 154.366 158.803C161.627 154.03 165.993 147.419 166.808 138.45C170.848 142.78 170.948 149.53 167.308 154.9C165.886 156.907 163.833 158.379 161.477 159.083ZM155.851 153.664L155.853 153.659C157.137 149.722 158.42 145.786 158.878 141.76C159.578 135.76 156.338 133.95 150.948 131.49C147.487 129.912 144.534 127.29 141.526 124.618L141.525 124.617L141.525 124.617L141.524 124.617L141.523 124.616C140.186 123.428 138.837 122.23 137.428 121.11C147.508 112.58 163.768 113.41 174.358 122.11C180.02 126.864 183.846 133.445 185.175 140.719C186.504 147.992 185.253 155.501 181.638 161.95C173.128 176.78 151.638 177.95 141.638 164.05C141.189 163.444 140.737 162.819 140.252 162.15L140.247 162.143C139.934 161.71 139.606 161.258 139.258 160.78C131.358 182.07 119.578 192.02 104.978 189.78V175.38C112.348 174.04 119.088 171.09 121.888 163.12C124.608 155.39 122.278 148.75 116.728 142.8L128.328 131.52L138.268 147.24L146.248 135.33L147.008 135.89C146.87 137.2 146.686 138.511 146.503 139.823C146.097 142.717 145.691 145.61 145.788 148.48C145.997 154.658 149.205 158.125 154.254 158.773C154.742 157.065 155.297 155.364 155.851 153.664ZM235.638 162.73V146.73C232.971 146.73 230.328 146.744 227.702 146.757C221.939 146.787 216.256 146.817 210.568 146.7C205.448 146.58 200.848 146.76 197.238 151.39C195.173 154.06 192.71 156.432 190.019 159.024C188.8 160.198 187.534 161.417 186.238 162.73H235.638ZM64.7703 142.481L64.7782 142.473C67.5289 139.868 70.2753 137.267 73.1275 134.81C74.1275 133.92 76.3976 133.25 77.4676 133.76C85.8076 137.76 90.3575 144.76 91.1775 153.76C91.9975 162.76 88.4676 170.25 80.4176 174.69C72.7976 178.89 65.1976 177.4 57.2076 172.92C73.7076 171.01 78.7176 167.47 78.1476 158.65C77.6376 150.44 73.1476 147.24 61.1275 145.91C62.3489 144.774 63.56 143.627 64.7703 142.481ZM200.026 182.023C201.432 183.456 203.341 184.283 205.348 184.33C206.339 184.35 207.325 184.173 208.248 183.809C209.17 183.446 210.012 182.903 210.723 182.212C211.435 181.521 212.002 180.695 212.392 179.784C212.783 178.872 212.989 177.892 212.998 176.9C213.067 175.908 212.934 174.912 212.606 173.973C212.278 173.034 211.763 172.172 211.091 171.438C210.419 170.705 209.605 170.116 208.699 169.707C207.792 169.298 206.812 169.078 205.818 169.06C204.785 169 203.751 169.152 202.78 169.507C201.808 169.863 200.92 170.414 200.17 171.126C199.421 171.839 198.825 172.697 198.42 173.649C198.015 174.601 197.81 175.626 197.818 176.66C197.827 178.667 198.62 180.591 200.026 182.023Z" fill="#FAA000"/>
</svg>
